<?xml version="1.0" encoding="UTF-8" standalone="no"?>
<svg xmlns:svg="http://www.w3.org/2000/svg" xmlns="http://www.w3.org/2000/svg" viewBox="1450 -2580 1500 610" height="43" width="164" xml:space="preserve" version="1.1">
    <g transform="matrix(1.3333333,0,0,-1.3333333,0,361.2)">
        <path id="path14" style="fill:#FFFFFF" d="m 2202.92,1890.56 c -0.17,18.04 -3.47,32.05 -10.4,45.26 -24.39,46.52 -85.35,57.52 -124.94,22.52 -35.96,-31.77 -38.29,-89.66 -5.02,-124.22 26.46,-27.49 65.6,-33.78 97.83,-14.81 28.5,16.78 41.24,42.67 42.53,71.25 m 33.83,3.21 c -0.04,-50.78 -31.47,-96.15 -79.3,-112.01 -41.99,-13.93 -80.24,-5.45 -113.02,23.4 -25.43,22.39 -38.5,51.08 -39.23,84.47 -1.03,45.98 17.92,82.44 58.32,106.69 56.49,33.9 131.2,11.39 160.3,-47.34 8.65,-17.47 12.81,-35.87 12.93,-55.21" />
        <path id="path16" style="fill:#FFFFFF"
         d="m 1786.89,1947.32 c 48.71,-20.6 63.98,-70.01 52.12,-110.54 -12.05,-41.16 -50.81,-66.61 -94.03,-62.04 -44.97,4.76 -75.95,37.37 -80.06,84.53 0.83,0.13 1.68,0.36 2.53,0.36 9.25,0.03 18.52,-0.06 27.77,0.08 2.47,0.03 3.45,-0.73 3.92,-3.19 0.88,-4.52 1.8,-9.11 3.39,-13.41 9.13,-24.75 33.91,-38.76 60.59,-34.47 22.81,3.67 40.25,20.35 44.56,42.62 4.73,24.49 -4.69,47.29 -24.62,59.33 -13.89,8.39 -28.97,9.23 -44.48,6.47 -9.75,-1.73 -19.43,-3.84 -29.15,-5.75 -0.88,-0.18 -1.8,-0.18 -3.31,0.47 21.47,21.83 42.93,43.66 65.19,66.31 h -81.29 l -12.34,33.6 h 175.06 c -22.32,-21.82 -44.09,-43.1 -65.85,-64.37" />
        <path id="path18" style="fill:#FFFFFF" d="m 1927.03,1808.75 c 31,0 54.58,23.45 54.61,54.32 0.05,31.91 -23.41,55.88 -54.56,55.79 -30.94,-0.11 -54.6,-23.82 -54.78,-54.95 -0.18,-31.27 23.5,-55.16 54.73,-55.16 m 42.64,203.41 c -15.3,-20.21 -29.96,-39.57 -45.01,-59.46 4.18,-0.32 7.89,-0.59 11.59,-0.9 40.46,-3.26 72.78,-33.8 78.2,-74.05 3.82,-28.39 -2.66,-53.91 -22.32,-75.23 -16.2,-17.59 -36.77,-26.43 -60.52,-27.2 -35.04,-1.12 -63.65,11.86 -80.98,42.91 -18.67,33.47 -17.11,67.56 5.42,98.95 22.49,31.36 46.36,61.73 69.68,92.48 0.86,1.11 2.41,2.38 3.65,2.39 13.07,0.18 26.15,0.11 40.29,0.11" />
        <path id="path20" style="fill:#FFFFFF" d="m 837.281,2011.22 h 160.098 l -27.078,-59.55 h -74.723 l -6.758,-28.41 h 68.739 l -25.7,-56.47 h -56.48 l -22.277,-93.62 h -72.473" />
        <path id="path22" style="fill:#FFFFFF" d="m 998.293,2011.22 h 73.437 l -42.48,-178.49 h 88.27 l -27.07,-59.56 H 941.641" />
        <path id="path24" style="fill:#FFFFFF" d="m 1186.28,1866.49 c 1.2,-7.36 3.65,-13.54 7.36,-18.54 3.71,-5 8.42,-8.77 14.17,-11.36 5.73,-2.59 11.93,-3.86 18.6,-3.86 6.78,0 13.62,1.27 20.54,3.86 6.89,2.59 13.4,6.36 19.48,11.36 6.08,5 11.45,11.18 16.11,18.54 4.66,7.35 8.13,15.87 10.44,25.55 2.3,9.66 2.88,18.2 1.74,25.61 -1.15,7.42 -3.57,13.64 -7.27,18.64 -3.7,4.98 -8.41,8.76 -14.08,11.35 -5.68,2.57 -11.9,3.86 -18.68,3.86 -6.69,0 -13.49,-1.29 -20.46,-3.86 -6.97,-2.59 -13.48,-6.37 -19.57,-11.35 -6.08,-5 -11.49,-11.22 -16.21,-18.64 -4.73,-7.41 -8.24,-15.95 -10.53,-25.61 -2.3,-9.68 -2.86,-18.2 -1.64,-25.55 m 130.92,141.9 c 14.18,-5.75 25.91,-14.01 35.18,-24.76 9.28,-10.77 15.57,-23.86 18.89,-39.31 3.32,-15.43 2.68,-32.84 -1.94,-52.19 -4.61,-19.38 -12.23,-36.75 -22.9,-52.15 -10.66,-15.39 -23.18,-28.48 -37.59,-39.28 -14.41,-10.82 -30.07,-19.11 -46.99,-24.86 -16.92,-5.75 -33.92,-8.64 -51.02,-8.64 -11.42,0 -22.23,1.29 -32.42,3.87 -10.19,2.58 -19.47,6.34 -27.81,11.31 -8.34,4.94 -15.67,11.01 -21.97,18.23 -6.3,7.2 -11.22,15.44 -14.77,24.69 -3.56,9.26 -5.59,19.47 -6.11,30.66 -0.5,11.2 0.77,23.24 3.84,36.17 3.2,12.91 7.72,24.96 13.61,36.14 5.89,11.18 12.83,21.41 20.79,30.66 7.95,9.25 16.76,17.48 26.44,24.7 9.68,7.19 19.87,13.28 30.57,18.23 10.7,4.94 21.74,8.71 33.11,11.3 11.37,2.57 22.76,3.88 34.17,3.88 17.1,0 32.74,-2.89 46.92,-8.65" />
        <path id="path26" style="fill:#FFFFFF" d="m 1707.32,2012.2 -106.2,-238.04 h -91.5 l 5.22,118.94 -51.53,-118.94 h -91.51 l 7.1,238.04 h 75.37 l -16.5,-178.49 h 4.04 l 68.63,178.49 h 65.35 l -16.34,-178.49 h 4.04 l 68.47,178.49" />
        <path id="path28" style="fill:#FFFFFF" d="m 2478.61,1797.98 c -60.14,0 -136.93,15.33 -178.18,110.61 -62.05,143.24 -120.57,149.29 -247.02,149.29 V 2071 c 128.99,0 193.88,-6.68 259.06,-157.19 41.37,-95.52 118.82,-104.92 181.66,-102.37 l 0.52,-13.12 c -5.18,-0.21 -10.54,-0.34 -16.04,-0.34" />
        <path id="path30" style="fill:#FFFFFF" d="m 2478.63,1821.05 c -59.86,0 -136.31,15.25 -177.36,110.04 -62.26,143.77 -120.98,149.83 -247.86,149.83 v 11.26 c 128.57,0 193.25,-6.65 258.2,-156.62 41.59,-96.04 119.48,-105.44 182.56,-102.93 l 0.46,-11.25 c -5.18,-0.2 -10.53,-0.33 -16,-0.33" />
        <path id="path32" style="fill:#FFFFFF" d="m 2478.63,1844.11 c -59.58,0 -135.65,15.18 -176.49,109.47 -62.5,144.32 -121.42,150.4 -248.72,150.4 v 9.39 c 128.15,0 192.62,-6.63 257.33,-156.06 41.81,-96.56 119.95,-106.06 183.46,-103.49 l 0.37,-9.38 c -5.15,-0.2 -10.48,-0.33 -15.95,-0.33" />
        <path id="path34" style="fill:#FFFFFF" d="m 2478.67,1867.17 c -59.31,0 -135.05,15.1 -175.67,108.91 -62.74,144.86 -121.85,150.97 -249.58,150.97 v 7.51 c 127.73,0 191.99,-6.61 256.46,-155.5 42.06,-97.1 120.56,-106.63 184.37,-104.05 l 0.29,-7.51 c -5.13,-0.2 -10.42,-0.33 -15.87,-0.33" />
        <path id="path36" style="fill:#FFFFFF" d="m 2477.75,1890.21 c -62.36,0 -133.91,16.01 -173.89,108.36 -62.98,145.4 -122.27,151.54 -250.45,151.54 v 5.63 c 127.32,0 191.38,-6.59 255.61,-154.93 42.28,-97.62 121.28,-107.22 185.27,-104.62 l 0.23,-5.63 c -5.5,-0.22 -11.09,-0.35 -16.77,-0.35" />
        <path id="path38" style="fill:#FFFFFF" d="m 2477.75,1913.27 c -62.05,0 -133.25,15.94 -173.04,107.8 -63.19,145.95 -122.71,152.1 -251.3,152.1 v 3.75 c 130.3,0 190.61,-6.24 254.75,-154.36 42.5,-98.15 121.86,-107.77 186.18,-105.19 l 0.14,-3.75 c -5.48,-0.22 -11.07,-0.35 -16.73,-0.35" />
        <path id="path40" style="fill:#FFFFFF" d="m 2477.81,1936.33 c -61.79,0 -132.66,15.85 -172.24,107.23 -63.43,146.49 -123.14,152.67 -252.15,152.67 v 1.87 c 62.22,0 113.01,-1.67 153.27,-22.68 39.69,-20.73 69.78,-59.94 100.61,-131.12 42.74,-98.67 122.46,-108.37 187.06,-105.75 l 0.08,-1.87 c -5.45,-0.22 -11.01,-0.35 -16.63,-0.35" />
    </g>
</svg>