<?xml version="1.0" encoding="UTF-8"?>
<svg width="52px" height="46px" viewBox="0 0 52 46" version="1.1" xmlns="http://www.w3.org/2000/svg" xmlns:xlink="http://www.w3.org/1999/xlink">
    <!-- Generator: Sketch 55 (78076) - https://sketchapp.com -->
    <title>megaphone marketing promotion</title>
    <desc>Created with Sketch.</desc>
    <g id="Final" stroke="none" stroke-width="1" fill="none" fill-rule="evenodd">
        <g id="megaphone-marketing-promotion" transform="translate(0.000000, -4.000000)">
            <rect id="Rectangle" x="0" y="0" width="52" height="52"></rect>
            <path d="M15.8690298,14.6091216 C20.485369,14.3936396 25.1686654,13.6702607 29.9189189,12.4389849 C35.9718575,10.8700503 42.029644,8.54164136 48.0922784,5.45375795 L48.0922708,5.45374304 C49.0765353,4.95242729 50.2808361,5.34393463 50.7821519,6.32819918 C50.9253508,6.60935059 51,6.92039296 51,7.23591165 L51.0000241,35.8811157 C51.0000241,36.9856985 50.1045828,37.8811398 49,37.8811398 C48.705124,37.8811398 48.413896,37.8159362 48.1471717,37.6901985 C41.8561019,34.7244954 35.7800177,32.4820392 29.9189189,30.9628299 C25.3167578,29.76994 20.653223,28.9966801 15.9283146,28.6430502 L15.9283126,28.6430773 C12.1880209,28.3631399 9.29615753,25.2467504 9.29615753,21.4959976 L9.29615753,21.4959976 C9.29615753,17.8133468 12.1903861,14.7808698 15.8690315,14.6091576 Z" id="Rectangle" stroke="#2D8FE2" stroke-width="2" stroke-linecap="round" stroke-linejoin="round" fill-rule="nonzero"></path>
            <path d="M6.0218856,17 C3.53660422,17 1,19.2385763 1,22 C1,24.7614237 3.53660422,27 6.0218856,27" id="Path" stroke="#2D8FE2" stroke-width="2" stroke-linecap="round" stroke-linejoin="round" fill-rule="nonzero"></path>
            <path d="M22.6042285,33.7535699 L24.5719702,43.8486494 C24.9669741,45.9515615 23.8604799,47.4465901 22.2518455,47.962965 C22.0177822,48.0380998 21.7776442,48.0760781 21.5366277,48.0760781 C19.2963972,48.0760781 17.47392,46.6873231 16.9641302,43.8355822 L15,33" id="Path" stroke="#2D8FE2" stroke-width="2" stroke-linecap="round" stroke-linejoin="round" fill-rule="nonzero"></path>
        </g>
    </g>
</svg>